<?xml version="1.0" encoding="UTF-8"?>
<!DOCTYPE svg PUBLIC "-//W3C//DTD SVG 1.1//EN" "http://www.w3.org/Graphics/SVG/1.1/DTD/svg11.dtd">
<svg xmlns="http://www.w3.org/2000/svg" version="1.1" width="153px" height="153px" style="shape-rendering:geometricPrecision; text-rendering:geometricPrecision; image-rendering:optimizeQuality; fill-rule:evenodd; clip-rule:evenodd" xmlns:xlink="http://www.w3.org/1999/xlink">
<g><path style="opacity:0.996" fill="#000100" d="M 9.5,-0.5 C 53.5,-0.5 97.5,-0.5 141.5,-0.5C 146.167,2.16667 149.833,5.83333 152.5,10.5C 152.5,54.1667 152.5,97.8333 152.5,141.5C 150.585,146.417 147.252,150.083 142.5,152.5C 94.8333,152.5 47.1667,152.5 -0.5,152.5C -0.5,104.5 -0.5,56.5 -0.5,8.5C 2.21089,4.78812 5.54423,1.78812 9.5,-0.5 Z"/></g>
<g><path style="opacity:1" fill="#4bad4f" d="M 49.5,16.5 C 49.5,33.5 49.5,50.5 49.5,67.5C 38.1667,67.5 26.8333,67.5 15.5,67.5C 15.5,50.5 15.5,33.5 15.5,16.5C 26.8333,16.5 38.1667,16.5 49.5,16.5 Z"/></g>
<g><path style="opacity:1" fill="#2d7b31" d="M 49.5,16.5 C 55.5,16.5 61.5,16.5 67.5,16.5C 67.5,33.5 67.5,50.5 67.5,67.5C 61.5,67.5 55.5,67.5 49.5,67.5C 49.5,50.5 49.5,33.5 49.5,16.5 Z"/></g>
<g><path style="opacity:1" fill="#4bae4f" d="M 118.5,16.5 C 118.5,33.5 118.5,50.5 118.5,67.5C 107.167,67.5 95.8333,67.5 84.5,67.5C 84.5,50.5 84.5,33.5 84.5,16.5C 95.8333,16.5 107.167,16.5 118.5,16.5 Z"/></g>
<g><path style="opacity:1" fill="#2d7b31" d="M 118.5,16.5 C 124.167,16.5 129.833,16.5 135.5,16.5C 135.5,33.5 135.5,50.5 135.5,67.5C 129.833,67.5 124.167,67.5 118.5,67.5C 118.5,50.5 118.5,33.5 118.5,16.5 Z"/></g>
<g><path style="opacity:1" fill="#2c7630" d="M 15.5,84.5 C 32.8333,84.5 50.1667,84.5 67.5,84.5C 67.6666,101.503 67.4999,118.503 67,135.5C 49.9104,136.492 32.7437,136.825 15.5,136.5C 15.5,119.167 15.5,101.833 15.5,84.5 Z"/></g>
<g><path style="opacity:1" fill="#4bae4f" d="M 16.5,85.5 C 27.8333,85.5 39.1667,85.5 50.5,85.5C 50.5,102.167 50.5,118.833 50.5,135.5C 39.1667,135.5 27.8333,135.5 16.5,135.5C 16.5,118.833 16.5,102.167 16.5,85.5 Z"/></g>
<g><path style="opacity:1" fill="#4bae4f" d="M 118.5,84.5 C 118.5,84.8333 118.5,85.1667 118.5,85.5C 118.5,102.167 118.5,118.833 118.5,135.5C 107.167,135.5 95.8333,135.5 84.5,135.5C 84.5,118.5 84.5,101.5 84.5,84.5C 95.8333,84.5 107.167,84.5 118.5,84.5 Z"/></g>
<g><path style="opacity:1" fill="#2e7d31" d="M 118.5,85.5 C 123.833,85.5 129.167,85.5 134.5,85.5C 134.5,102.167 134.5,118.833 134.5,135.5C 129.167,135.5 123.833,135.5 118.5,135.5C 118.5,118.833 118.5,102.167 118.5,85.5 Z"/></g>
<g><path style="opacity:1" fill="#215824" d="M 118.5,85.5 C 118.5,85.1667 118.5,84.8333 118.5,84.5C 124.167,84.5 129.833,84.5 135.5,84.5C 135.5,101.833 135.5,119.167 135.5,136.5C 118.325,136.83 101.325,136.497 84.5,135.5C 95.8333,135.5 107.167,135.5 118.5,135.5C 123.833,135.5 129.167,135.5 134.5,135.5C 134.5,118.833 134.5,102.167 134.5,85.5C 129.167,85.5 123.833,85.5 118.5,85.5 Z"/></g>
</svg>
